<svg width="744" height="106" viewBox="0 0 744 106" fill="none" xmlns="http://www.w3.org/2000/svg">
<g filter="url(#filter0_dd_27_126)">
<rect x="16" y="12" width="712" height="74" rx="4" fill="white"/>
</g>
<path d="M40.5469 44.7734V46H34.5234V44.7734H40.5469ZM34.8281 34.625V46H33.3203V34.625H34.8281ZM39.75 39.5156V40.7422H34.5234V39.5156H39.75ZM40.4688 34.625V35.8594H34.5234V34.625H40.4688ZM43.6406 39.3516V46H42.1953V37.5469H43.5625L43.6406 39.3516ZM43.2969 41.4531L42.6953 41.4297C42.7005 40.8516 42.7865 40.3177 42.9531 39.8281C43.1198 39.3333 43.3542 38.9036 43.6562 38.5391C43.9583 38.1745 44.3177 37.8932 44.7344 37.6953C45.1562 37.4922 45.6224 37.3906 46.1328 37.3906C46.5495 37.3906 46.9245 37.4479 47.2578 37.5625C47.5911 37.6719 47.875 37.849 48.1094 38.0938C48.349 38.3385 48.5312 38.6562 48.6562 39.0469C48.7812 39.4323 48.8438 39.9036 48.8438 40.4609V46H47.3906V40.4453C47.3906 40.0026 47.3255 39.6484 47.1953 39.3828C47.0651 39.112 46.875 38.9167 46.625 38.7969C46.375 38.6719 46.0677 38.6094 45.7031 38.6094C45.3438 38.6094 45.0156 38.6849 44.7188 38.8359C44.4271 38.987 44.1745 39.1953 43.9609 39.4609C43.7526 39.7266 43.5885 40.0312 43.4688 40.375C43.3542 40.7135 43.2969 41.0729 43.2969 41.4531ZM54.5781 37.5469V38.6562H50.0078V37.5469H54.5781ZM51.5547 35.4922H53V43.9062C53 44.1927 53.0443 44.4089 53.1328 44.5547C53.2214 44.7005 53.3359 44.7969 53.4766 44.8438C53.6172 44.8906 53.7682 44.9141 53.9297 44.9141C54.0495 44.9141 54.1745 44.9036 54.3047 44.8828C54.4401 44.8568 54.5417 44.8359 54.6094 44.8203L54.6172 46C54.5026 46.0365 54.3516 46.0703 54.1641 46.1016C53.9818 46.138 53.7604 46.1562 53.5 46.1562C53.1458 46.1562 52.8203 46.0859 52.5234 45.9453C52.2266 45.8047 51.9896 45.5703 51.8125 45.2422C51.6406 44.9089 51.5547 44.4609 51.5547 43.8984V35.4922ZM59.7812 46.1562C59.1927 46.1562 58.6589 46.0573 58.1797 45.8594C57.7057 45.6562 57.2969 45.3724 56.9531 45.0078C56.6146 44.6432 56.3542 44.2109 56.1719 43.7109C55.9896 43.2109 55.8984 42.6641 55.8984 42.0703V41.7422C55.8984 41.0547 56 40.4427 56.2031 39.9062C56.4062 39.3646 56.6823 38.9062 57.0312 38.5312C57.3802 38.1562 57.776 37.8724 58.2188 37.6797C58.6615 37.487 59.1198 37.3906 59.5938 37.3906C60.1979 37.3906 60.7188 37.4948 61.1562 37.7031C61.599 37.9115 61.9609 38.2031 62.2422 38.5781C62.5234 38.9479 62.7318 39.3854 62.8672 39.8906C63.0026 40.3906 63.0703 40.9375 63.0703 41.5312V42.1797H56.7578V41H61.625V40.8906C61.6042 40.5156 61.526 40.151 61.3906 39.7969C61.2604 39.4427 61.0521 39.151 60.7656 38.9219C60.4792 38.6927 60.0885 38.5781 59.5938 38.5781C59.2656 38.5781 58.9635 38.6484 58.6875 38.7891C58.4115 38.9245 58.1745 39.1276 57.9766 39.3984C57.7786 39.6693 57.625 40 57.5156 40.3906C57.4062 40.7812 57.3516 41.2318 57.3516 41.7422V42.0703C57.3516 42.4714 57.4062 42.849 57.5156 43.2031C57.6302 43.5521 57.7943 43.8594 58.0078 44.125C58.2266 44.3906 58.4896 44.599 58.7969 44.75C59.1094 44.901 59.4635 44.9766 59.8594 44.9766C60.3698 44.9766 60.8021 44.8724 61.1562 44.6641C61.5104 44.4557 61.8203 44.1771 62.0859 43.8281L62.9609 44.5234C62.7786 44.7995 62.5469 45.0625 62.2656 45.3125C61.9844 45.5625 61.638 45.7656 61.2266 45.9219C60.8203 46.0781 60.3385 46.1562 59.7812 46.1562ZM66.2031 38.875V46H64.7578V37.5469H66.1641L66.2031 38.875ZM68.8438 37.5L68.8359 38.8438C68.7161 38.8177 68.6016 38.8021 68.4922 38.7969C68.388 38.7865 68.2682 38.7812 68.1328 38.7812C67.7995 38.7812 67.5052 38.8333 67.25 38.9375C66.9948 39.0417 66.7786 39.1875 66.6016 39.375C66.4245 39.5625 66.2839 39.7865 66.1797 40.0469C66.0807 40.3021 66.0156 40.5833 65.9844 40.8906L65.5781 41.125C65.5781 40.6146 65.6276 40.1354 65.7266 39.6875C65.8307 39.2396 65.9896 38.8438 66.2031 38.5C66.4167 38.151 66.6875 37.8802 67.0156 37.6875C67.349 37.4896 67.7448 37.3906 68.2031 37.3906C68.3073 37.3906 68.4271 37.4036 68.5625 37.4297C68.6979 37.4505 68.7917 37.474 68.8438 37.5ZM76.5234 45.125L78.875 37.5469H80.4219L77.0312 47.3047C76.9531 47.513 76.849 47.737 76.7188 47.9766C76.5938 48.2214 76.4323 48.4531 76.2344 48.6719C76.0365 48.8906 75.7969 49.0677 75.5156 49.2031C75.2396 49.3438 74.9089 49.4141 74.5234 49.4141C74.4089 49.4141 74.263 49.3984 74.0859 49.3672C73.9089 49.3359 73.7839 49.3099 73.7109 49.2891L73.7031 48.1172C73.7448 48.1224 73.8099 48.1276 73.8984 48.1328C73.9922 48.1432 74.0573 48.1484 74.0938 48.1484C74.4219 48.1484 74.7005 48.1042 74.9297 48.0156C75.1589 47.9323 75.3516 47.7891 75.5078 47.5859C75.6693 47.388 75.8073 47.1146 75.9219 46.7656L76.5234 45.125ZM74.7969 37.5469L76.9922 44.1094L77.3672 45.6328L76.3281 46.1641L73.2188 37.5469H74.7969ZM81.2188 41.8672V41.6875C81.2188 41.0781 81.3073 40.513 81.4844 39.9922C81.6615 39.4661 81.9167 39.0104 82.25 38.625C82.5833 38.2344 82.987 37.9323 83.4609 37.7188C83.9349 37.5 84.4661 37.3906 85.0547 37.3906C85.6484 37.3906 86.1823 37.5 86.6562 37.7188C87.1354 37.9323 87.5417 38.2344 87.875 38.625C88.2135 39.0104 88.4714 39.4661 88.6484 39.9922C88.8255 40.513 88.9141 41.0781 88.9141 41.6875V41.8672C88.9141 42.4766 88.8255 43.0417 88.6484 43.5625C88.4714 44.0833 88.2135 44.5391 87.875 44.9297C87.5417 45.3151 87.138 45.6172 86.6641 45.8359C86.1953 46.0495 85.6641 46.1562 85.0703 46.1562C84.4766 46.1562 83.9427 46.0495 83.4688 45.8359C82.9948 45.6172 82.5885 45.3151 82.25 44.9297C81.9167 44.5391 81.6615 44.0833 81.4844 43.5625C81.3073 43.0417 81.2188 42.4766 81.2188 41.8672ZM82.6641 41.6875V41.8672C82.6641 42.2891 82.7135 42.6875 82.8125 43.0625C82.9115 43.4323 83.0599 43.7604 83.2578 44.0469C83.4609 44.3333 83.7135 44.5599 84.0156 44.7266C84.3177 44.888 84.6693 44.9688 85.0703 44.9688C85.4661 44.9688 85.8125 44.888 86.1094 44.7266C86.4115 44.5599 86.6615 44.3333 86.8594 44.0469C87.0573 43.7604 87.2057 43.4323 87.3047 43.0625C87.4089 42.6875 87.4609 42.2891 87.4609 41.8672V41.6875C87.4609 41.2708 87.4089 40.8776 87.3047 40.5078C87.2057 40.1328 87.0547 39.8021 86.8516 39.5156C86.6536 39.224 86.4036 38.9948 86.1016 38.8281C85.8047 38.6615 85.4557 38.5781 85.0547 38.5781C84.6589 38.5781 84.3099 38.6615 84.0078 38.8281C83.7109 38.9948 83.4609 39.224 83.2578 39.5156C83.0599 39.8021 82.9115 40.1328 82.8125 40.5078C82.7135 40.8776 82.6641 41.2708 82.6641 41.6875ZM95.8984 44.0469V37.5469H97.3516V46H95.9688L95.8984 44.0469ZM96.1719 42.2656L96.7734 42.25C96.7734 42.8125 96.7135 43.3333 96.5938 43.8125C96.4792 44.2865 96.2917 44.6979 96.0312 45.0469C95.7708 45.3958 95.4297 45.6693 95.0078 45.8672C94.5859 46.0599 94.0729 46.1562 93.4688 46.1562C93.0573 46.1562 92.6797 46.0964 92.3359 45.9766C91.9974 45.8568 91.7057 45.6719 91.4609 45.4219C91.2161 45.1719 91.026 44.8464 90.8906 44.4453C90.7604 44.0443 90.6953 43.5625 90.6953 43V37.5469H92.1406V43.0156C92.1406 43.3958 92.1823 43.7109 92.2656 43.9609C92.3542 44.2057 92.4714 44.401 92.6172 44.5469C92.7682 44.6875 92.9349 44.7865 93.1172 44.8438C93.3047 44.901 93.4974 44.9297 93.6953 44.9297C94.3099 44.9297 94.7969 44.8125 95.1562 44.5781C95.5156 44.3385 95.7734 44.0182 95.9297 43.6172C96.0911 43.2109 96.1719 42.7604 96.1719 42.2656ZM103.094 37.5469V38.6562H98.5234V37.5469H103.094ZM100.07 35.4922H101.516V43.9062C101.516 44.1927 101.56 44.4089 101.648 44.5547C101.737 44.7005 101.852 44.7969 101.992 44.8438C102.133 44.8906 102.284 44.9141 102.445 44.9141C102.565 44.9141 102.69 44.9036 102.82 44.8828C102.956 44.8568 103.057 44.8359 103.125 44.8203L103.133 46C103.018 46.0365 102.867 46.0703 102.68 46.1016C102.497 46.138 102.276 46.1562 102.016 46.1562C101.661 46.1562 101.336 46.0859 101.039 45.9453C100.742 45.8047 100.505 45.5703 100.328 45.2422C100.156 44.9089 100.07 44.4609 100.07 43.8984V35.4922ZM109.961 44.0469V37.5469H111.414V46H110.031L109.961 44.0469ZM110.234 42.2656L110.836 42.25C110.836 42.8125 110.776 43.3333 110.656 43.8125C110.542 44.2865 110.354 44.6979 110.094 45.0469C109.833 45.3958 109.492 45.6693 109.07 45.8672C108.648 46.0599 108.135 46.1562 107.531 46.1562C107.12 46.1562 106.742 46.0964 106.398 45.9766C106.06 45.8568 105.768 45.6719 105.523 45.4219C105.279 45.1719 105.089 44.8464 104.953 44.4453C104.823 44.0443 104.758 43.5625 104.758 43V37.5469H106.203V43.0156C106.203 43.3958 106.245 43.7109 106.328 43.9609C106.417 44.2057 106.534 44.401 106.68 44.5469C106.831 44.6875 106.997 44.7865 107.18 44.8438C107.367 44.901 107.56 44.9297 107.758 44.9297C108.372 44.9297 108.859 44.8125 109.219 44.5781C109.578 44.3385 109.836 44.0182 109.992 43.6172C110.154 43.2109 110.234 42.7604 110.234 42.2656ZM113.609 34H115.062V44.3594L114.938 46H113.609V34ZM120.773 41.7031V41.8672C120.773 42.4818 120.701 43.0521 120.555 43.5781C120.409 44.099 120.195 44.5521 119.914 44.9375C119.633 45.3229 119.289 45.6224 118.883 45.8359C118.477 46.0495 118.01 46.1562 117.484 46.1562C116.948 46.1562 116.477 46.0651 116.07 45.8828C115.669 45.6953 115.331 45.4271 115.055 45.0781C114.779 44.7292 114.557 44.3073 114.391 43.8125C114.229 43.3177 114.117 42.7604 114.055 42.1406V41.4219C114.117 40.7969 114.229 40.237 114.391 39.7422C114.557 39.2474 114.779 38.8255 115.055 38.4766C115.331 38.1224 115.669 37.8542 116.07 37.6719C116.471 37.4844 116.938 37.3906 117.469 37.3906C118 37.3906 118.471 37.4948 118.883 37.7031C119.294 37.9062 119.638 38.1979 119.914 38.5781C120.195 38.9583 120.409 39.4141 120.555 39.9453C120.701 40.4714 120.773 41.0573 120.773 41.7031ZM119.32 41.8672V41.7031C119.32 41.2812 119.281 40.8854 119.203 40.5156C119.125 40.1406 119 39.8125 118.828 39.5312C118.656 39.2448 118.43 39.0208 118.148 38.8594C117.867 38.6927 117.521 38.6094 117.109 38.6094C116.745 38.6094 116.427 38.6719 116.156 38.7969C115.891 38.9219 115.664 39.0911 115.477 39.3047C115.289 39.513 115.135 39.7526 115.016 40.0234C114.901 40.2891 114.815 40.5651 114.758 40.8516V42.7344C114.841 43.099 114.977 43.4505 115.164 43.7891C115.357 44.1224 115.612 44.3958 115.93 44.6094C116.253 44.8229 116.651 44.9297 117.125 44.9297C117.516 44.9297 117.849 44.8516 118.125 44.6953C118.406 44.5339 118.633 44.3125 118.805 44.0312C118.982 43.75 119.112 43.4245 119.195 43.0547C119.279 42.6849 119.32 42.2891 119.32 41.8672ZM126.109 46.1562C125.521 46.1562 124.987 46.0573 124.508 45.8594C124.034 45.6562 123.625 45.3724 123.281 45.0078C122.943 44.6432 122.682 44.2109 122.5 43.7109C122.318 43.2109 122.227 42.6641 122.227 42.0703V41.7422C122.227 41.0547 122.328 40.4427 122.531 39.9062C122.734 39.3646 123.01 38.9062 123.359 38.5312C123.708 38.1562 124.104 37.8724 124.547 37.6797C124.99 37.487 125.448 37.3906 125.922 37.3906C126.526 37.3906 127.047 37.4948 127.484 37.7031C127.927 37.9115 128.289 38.2031 128.57 38.5781C128.852 38.9479 129.06 39.3854 129.195 39.8906C129.331 40.3906 129.398 40.9375 129.398 41.5312V42.1797H123.086V41H127.953V40.8906C127.932 40.5156 127.854 40.151 127.719 39.7969C127.589 39.4427 127.38 39.151 127.094 38.9219C126.807 38.6927 126.417 38.5781 125.922 38.5781C125.594 38.5781 125.292 38.6484 125.016 38.7891C124.74 38.9245 124.503 39.1276 124.305 39.3984C124.107 39.6693 123.953 40 123.844 40.3906C123.734 40.7812 123.68 41.2318 123.68 41.7422V42.0703C123.68 42.4714 123.734 42.849 123.844 43.2031C123.958 43.5521 124.122 43.8594 124.336 44.125C124.555 44.3906 124.818 44.599 125.125 44.75C125.438 44.901 125.792 44.9766 126.188 44.9766C126.698 44.9766 127.13 44.8724 127.484 44.6641C127.839 44.4557 128.148 44.1771 128.414 43.8281L129.289 44.5234C129.107 44.7995 128.875 45.0625 128.594 45.3125C128.312 45.5625 127.966 45.7656 127.555 45.9219C127.148 46.0781 126.667 46.1562 126.109 46.1562ZM140.227 44.0469V37.5469H141.68V46H140.297L140.227 44.0469ZM140.5 42.2656L141.102 42.25C141.102 42.8125 141.042 43.3333 140.922 43.8125C140.807 44.2865 140.62 44.6979 140.359 45.0469C140.099 45.3958 139.758 45.6693 139.336 45.8672C138.914 46.0599 138.401 46.1562 137.797 46.1562C137.385 46.1562 137.008 46.0964 136.664 45.9766C136.326 45.8568 136.034 45.6719 135.789 45.4219C135.544 45.1719 135.354 44.8464 135.219 44.4453C135.089 44.0443 135.023 43.5625 135.023 43V37.5469H136.469V43.0156C136.469 43.3958 136.51 43.7109 136.594 43.9609C136.682 44.2057 136.799 44.401 136.945 44.5469C137.096 44.6875 137.263 44.7865 137.445 44.8438C137.633 44.901 137.826 44.9297 138.023 44.9297C138.638 44.9297 139.125 44.8125 139.484 44.5781C139.844 44.3385 140.102 44.0182 140.258 43.6172C140.419 43.2109 140.5 42.7604 140.5 42.2656ZM145.328 38.875V46H143.883V37.5469H145.289L145.328 38.875ZM147.969 37.5L147.961 38.8438C147.841 38.8177 147.727 38.8021 147.617 38.7969C147.513 38.7865 147.393 38.7812 147.258 38.7812C146.924 38.7812 146.63 38.8333 146.375 38.9375C146.12 39.0417 145.904 39.1875 145.727 39.375C145.549 39.5625 145.409 39.7865 145.305 40.0469C145.206 40.3021 145.141 40.5833 145.109 40.8906L144.703 41.125C144.703 40.6146 144.753 40.1354 144.852 39.6875C144.956 39.2396 145.115 38.8438 145.328 38.5C145.542 38.151 145.812 37.8802 146.141 37.6875C146.474 37.4896 146.87 37.3906 147.328 37.3906C147.432 37.3906 147.552 37.4036 147.688 37.4297C147.823 37.4505 147.917 37.474 147.969 37.5ZM150.875 34V46H149.422V34H150.875ZM158.609 34V46H157.164V34H158.609ZM158.266 41.4531L157.664 41.4297C157.669 40.8516 157.755 40.3177 157.922 39.8281C158.089 39.3333 158.323 38.9036 158.625 38.5391C158.927 38.1745 159.286 37.8932 159.703 37.6953C160.125 37.4922 160.591 37.3906 161.102 37.3906C161.518 37.3906 161.893 37.4479 162.227 37.5625C162.56 37.6719 162.844 37.849 163.078 38.0938C163.318 38.3385 163.5 38.6562 163.625 39.0469C163.75 39.4323 163.812 39.9036 163.812 40.4609V46H162.359V40.4453C162.359 40.0026 162.294 39.6484 162.164 39.3828C162.034 39.112 161.844 38.9167 161.594 38.7969C161.344 38.6719 161.036 38.6094 160.672 38.6094C160.312 38.6094 159.984 38.6849 159.688 38.8359C159.396 38.987 159.143 39.1953 158.93 39.4609C158.721 39.7266 158.557 40.0312 158.438 40.375C158.323 40.7135 158.266 41.0729 158.266 41.4531ZM169.484 46.1562C168.896 46.1562 168.362 46.0573 167.883 45.8594C167.409 45.6562 167 45.3724 166.656 45.0078C166.318 44.6432 166.057 44.2109 165.875 43.7109C165.693 43.2109 165.602 42.6641 165.602 42.0703V41.7422C165.602 41.0547 165.703 40.4427 165.906 39.9062C166.109 39.3646 166.385 38.9062 166.734 38.5312C167.083 38.1562 167.479 37.8724 167.922 37.6797C168.365 37.487 168.823 37.3906 169.297 37.3906C169.901 37.3906 170.422 37.4948 170.859 37.7031C171.302 37.9115 171.664 38.2031 171.945 38.5781C172.227 38.9479 172.435 39.3854 172.57 39.8906C172.706 40.3906 172.773 40.9375 172.773 41.5312V42.1797H166.461V41H171.328V40.8906C171.307 40.5156 171.229 40.151 171.094 39.7969C170.964 39.4427 170.755 39.151 170.469 38.9219C170.182 38.6927 169.792 38.5781 169.297 38.5781C168.969 38.5781 168.667 38.6484 168.391 38.7891C168.115 38.9245 167.878 39.1276 167.68 39.3984C167.482 39.6693 167.328 40 167.219 40.3906C167.109 40.7812 167.055 41.2318 167.055 41.7422V42.0703C167.055 42.4714 167.109 42.849 167.219 43.2031C167.333 43.5521 167.497 43.8594 167.711 44.125C167.93 44.3906 168.193 44.599 168.5 44.75C168.812 44.901 169.167 44.9766 169.562 44.9766C170.073 44.9766 170.505 44.8724 170.859 44.6641C171.214 44.4557 171.523 44.1771 171.789 43.8281L172.664 44.5234C172.482 44.7995 172.25 45.0625 171.969 45.3125C171.688 45.5625 171.341 45.7656 170.93 45.9219C170.523 46.0781 170.042 46.1562 169.484 46.1562ZM175.906 38.875V46H174.461V37.5469H175.867L175.906 38.875ZM178.547 37.5L178.539 38.8438C178.419 38.8177 178.305 38.8021 178.195 38.7969C178.091 38.7865 177.971 38.7812 177.836 38.7812C177.503 38.7812 177.208 38.8333 176.953 38.9375C176.698 39.0417 176.482 39.1875 176.305 39.375C176.128 39.5625 175.987 39.7865 175.883 40.0469C175.784 40.3021 175.719 40.5833 175.688 40.8906L175.281 41.125C175.281 40.6146 175.331 40.1354 175.43 39.6875C175.534 39.2396 175.693 38.8438 175.906 38.5C176.12 38.151 176.391 37.8802 176.719 37.6875C177.052 37.4896 177.448 37.3906 177.906 37.3906C178.01 37.3906 178.13 37.4036 178.266 37.4297C178.401 37.4505 178.495 37.474 178.547 37.5ZM183.234 46.1562C182.646 46.1562 182.112 46.0573 181.633 45.8594C181.159 45.6562 180.75 45.3724 180.406 45.0078C180.068 44.6432 179.807 44.2109 179.625 43.7109C179.443 43.2109 179.352 42.6641 179.352 42.0703V41.7422C179.352 41.0547 179.453 40.4427 179.656 39.9062C179.859 39.3646 180.135 38.9062 180.484 38.5312C180.833 38.1562 181.229 37.8724 181.672 37.6797C182.115 37.487 182.573 37.3906 183.047 37.3906C183.651 37.3906 184.172 37.4948 184.609 37.7031C185.052 37.9115 185.414 38.2031 185.695 38.5781C185.977 38.9479 186.185 39.3854 186.32 39.8906C186.456 40.3906 186.523 40.9375 186.523 41.5312V42.1797H180.211V41H185.078V40.8906C185.057 40.5156 184.979 40.151 184.844 39.7969C184.714 39.4427 184.505 39.151 184.219 38.9219C183.932 38.6927 183.542 38.5781 183.047 38.5781C182.719 38.5781 182.417 38.6484 182.141 38.7891C181.865 38.9245 181.628 39.1276 181.43 39.3984C181.232 39.6693 181.078 40 180.969 40.3906C180.859 40.7812 180.805 41.2318 180.805 41.7422V42.0703C180.805 42.4714 180.859 42.849 180.969 43.2031C181.083 43.5521 181.247 43.8594 181.461 44.125C181.68 44.3906 181.943 44.599 182.25 44.75C182.562 44.901 182.917 44.9766 183.312 44.9766C183.823 44.9766 184.255 44.8724 184.609 44.6641C184.964 44.4557 185.273 44.1771 185.539 43.8281L186.414 44.5234C186.232 44.7995 186 45.0625 185.719 45.3125C185.438 45.5625 185.091 45.7656 184.68 45.9219C184.273 46.0781 183.792 46.1562 183.234 46.1562ZM192.203 45.2344C192.203 44.9896 192.279 44.7839 192.43 44.6172C192.586 44.4453 192.81 44.3594 193.102 44.3594C193.393 44.3594 193.615 44.4453 193.766 44.6172C193.922 44.7839 194 44.9896 194 45.2344C194 45.474 193.922 45.6771 193.766 45.8438C193.615 46.0104 193.393 46.0938 193.102 46.0938C192.81 46.0938 192.586 46.0104 192.43 45.8438C192.279 45.6771 192.203 45.474 192.203 45.2344ZM196.422 45.2344C196.422 44.9896 196.497 44.7839 196.648 44.6172C196.805 44.4453 197.029 44.3594 197.32 44.3594C197.612 44.3594 197.833 44.4453 197.984 44.6172C198.141 44.7839 198.219 44.9896 198.219 45.2344C198.219 45.474 198.141 45.6771 197.984 45.8438C197.833 46.0104 197.612 46.0938 197.32 46.0938C197.029 46.0938 196.805 46.0104 196.648 45.8438C196.497 45.6771 196.422 45.474 196.422 45.2344ZM200.641 45.2344C200.641 44.9896 200.716 44.7839 200.867 44.6172C201.023 44.4453 201.247 44.3594 201.539 44.3594C201.831 44.3594 202.052 44.4453 202.203 44.6172C202.359 44.7839 202.438 44.9896 202.438 45.2344C202.438 45.474 202.359 45.6771 202.203 45.8438C202.052 46.0104 201.831 46.0938 201.539 46.0938C201.247 46.0938 201.023 46.0104 200.867 45.8438C200.716 45.6771 200.641 45.474 200.641 45.2344ZM204.859 45.2344C204.859 44.9896 204.935 44.7839 205.086 44.6172C205.242 44.4453 205.466 44.3594 205.758 44.3594C206.049 44.3594 206.271 44.4453 206.422 44.6172C206.578 44.7839 206.656 44.9896 206.656 45.2344C206.656 45.474 206.578 45.6771 206.422 45.8438C206.271 46.0104 206.049 46.0938 205.758 46.0938C205.466 46.0938 205.242 46.0104 205.086 45.8438C204.935 45.6771 204.859 45.474 204.859 45.2344Z" fill="#111111" fill-opacity="0.48"/>
<defs>
<filter id="filter0_dd_27_126" x="0" y="0" width="744" height="106" filterUnits="userSpaceOnUse" color-interpolation-filters="sRGB">
<feFlood flood-opacity="0" result="BackgroundImageFix"/>
<feColorMatrix in="SourceAlpha" type="matrix" values="0 0 0 0 0 0 0 0 0 0 0 0 0 0 0 0 0 0 127 0" result="hardAlpha"/>
<feOffset dy="4"/>
<feGaussianBlur stdDeviation="8"/>
<feColorMatrix type="matrix" values="0 0 0 0 0.2 0 0 0 0 0.2 0 0 0 0 0.2 0 0 0 0.08 0"/>
<feBlend mode="normal" in2="BackgroundImageFix" result="effect1_dropShadow_27_126"/>
<feColorMatrix in="SourceAlpha" type="matrix" values="0 0 0 0 0 0 0 0 0 0 0 0 0 0 0 0 0 0 127 0" result="hardAlpha"/>
<feOffset dy="4"/>
<feGaussianBlur stdDeviation="2"/>
<feColorMatrix type="matrix" values="0 0 0 0 0.2 0 0 0 0 0.2 0 0 0 0 0.2 0 0 0 0.04 0"/>
<feBlend mode="normal" in2="effect1_dropShadow_27_126" result="effect2_dropShadow_27_126"/>
<feBlend mode="normal" in="SourceGraphic" in2="effect2_dropShadow_27_126" result="shape"/>
</filter>
</defs>
</svg>
