<svg width="143" height="56" viewBox="0 0 143 56" fill="none" xmlns="http://www.w3.org/2000/svg">
<path d="M52.08 19.1125C52.4772 18.0616 52.7 16.9125 52.7 15.7143C52.7 10.5089 48.5344 6.28571 43.4 6.28571C41.4916 6.28571 39.7091 6.875 38.2366 7.87679C35.5531 3.1625 30.5447 0 24.8 0C16.2362 0 9.3 7.03214 9.3 15.7143C9.3 15.9795 9.30969 16.2446 9.31937 16.5098C3.89437 18.4446 0 23.6893 0 29.8571C0 37.6652 6.24844 44 13.95 44H49.6C56.4491 44 62 38.3723 62 31.4286C62 25.3491 57.7375 20.2714 52.08 19.1125ZM39.2053 27.8241L28.9947 38.1759C28.3941 38.7848 27.4059 38.7848 26.8053 38.1759L16.5947 27.8241C15.6162 26.8321 16.3138 25.1429 17.6894 25.1429H24.025V14.1429C24.025 13.2786 24.7225 12.5714 25.575 12.5714H30.225C31.0775 12.5714 31.775 13.2786 31.775 14.1429V25.1429H38.1106C39.4862 25.1429 40.1837 26.8321 39.2053 27.8241V27.8241Z" fill="#6E41E2"/>
<path d="M85.3203 32.0371C85.127 33.6914 84.5146 34.9697 83.4834 35.8721C82.4593 36.7673 81.0951 37.2148 79.3906 37.2148C77.543 37.2148 76.0605 36.5524 74.9434 35.2275C73.8333 33.9027 73.2783 32.1302 73.2783 29.9102V28.4062C73.2783 26.9525 73.5361 25.6742 74.0518 24.5713C74.5745 23.4684 75.3122 22.6234 76.2646 22.0361C77.2171 21.4417 78.32 21.1445 79.5732 21.1445C81.2347 21.1445 82.5667 21.61 83.5693 22.541C84.5719 23.4648 85.1556 24.7467 85.3203 26.3867H83.2471C83.068 25.1406 82.6777 24.2383 82.0762 23.6797C81.4818 23.1211 80.6475 22.8418 79.5732 22.8418C78.2555 22.8418 77.2207 23.3288 76.4688 24.3027C75.724 25.2767 75.3516 26.6624 75.3516 28.46V29.9746C75.3516 31.6719 75.7061 33.0218 76.415 34.0244C77.124 35.027 78.1159 35.5283 79.3906 35.5283C80.5365 35.5283 81.4137 35.2705 82.0225 34.7549C82.6383 34.2321 83.0465 33.3262 83.2471 32.0371H85.3203ZM89.8213 26.7842C90.7021 25.7028 91.848 25.1621 93.2588 25.1621C95.7152 25.1621 96.9541 26.5479 96.9756 29.3193V37H94.9883V29.3086C94.9811 28.4707 94.7878 27.8512 94.4082 27.4502C94.0358 27.0492 93.4521 26.8486 92.6572 26.8486C92.0127 26.8486 91.4469 27.0205 90.96 27.3643C90.473 27.708 90.0934 28.1592 89.8213 28.7178V37H87.834V20.5H89.8213V26.7842ZM99.4248 31.0811C99.4248 29.9424 99.6468 28.9183 100.091 28.0088C100.542 27.0993 101.165 26.3975 101.96 25.9033C102.762 25.4092 103.675 25.1621 104.699 25.1621C106.282 25.1621 107.56 25.71 108.534 26.8057C109.515 27.9014 110.006 29.3587 110.006 31.1777V31.3174C110.006 32.4489 109.787 33.4658 109.351 34.3682C108.921 35.2633 108.301 35.9616 107.492 36.4629C106.69 36.9642 105.766 37.2148 104.721 37.2148C103.145 37.2148 101.867 36.667 100.886 35.5713C99.9118 34.4756 99.4248 33.0254 99.4248 31.2207V31.0811ZM101.423 31.3174C101.423 32.6064 101.72 33.6413 102.314 34.4219C102.916 35.2025 103.718 35.5928 104.721 35.5928C105.73 35.5928 106.533 35.1989 107.127 34.4111C107.721 33.6162 108.019 32.5062 108.019 31.0811C108.019 29.8063 107.714 28.7751 107.105 27.9873C106.504 27.1924 105.702 26.7949 104.699 26.7949C103.718 26.7949 102.927 27.1852 102.325 27.9658C101.724 28.7464 101.423 29.8636 101.423 31.3174ZM114.367 25.377L114.421 26.666C115.273 25.6634 116.423 25.1621 117.869 25.1621C119.495 25.1621 120.601 25.7852 121.188 27.0312C121.575 26.4727 122.076 26.0215 122.692 25.6777C123.315 25.334 124.049 25.1621 124.895 25.1621C127.444 25.1621 128.74 26.512 128.783 29.2119V37H126.796V29.3301C126.796 28.4993 126.606 27.8799 126.227 27.4717C125.847 27.0563 125.21 26.8486 124.314 26.8486C123.577 26.8486 122.965 27.0706 122.478 27.5146C121.991 27.9515 121.708 28.5423 121.629 29.2871V37H119.631V29.3838C119.631 27.6937 118.804 26.8486 117.149 26.8486C115.846 26.8486 114.954 27.4036 114.475 28.5137V37H112.487V25.377H114.367ZM138.967 37C138.852 36.7708 138.759 36.3626 138.688 35.7754C137.764 36.735 136.661 37.2148 135.379 37.2148C134.233 37.2148 133.291 36.8926 132.554 36.248C131.823 35.5964 131.458 34.7728 131.458 33.7773C131.458 32.5671 131.916 31.6289 132.833 30.9629C133.757 30.2897 135.053 29.9531 136.722 29.9531H138.655V29.04C138.655 28.3454 138.448 27.7939 138.032 27.3857C137.617 26.9704 137.005 26.7627 136.195 26.7627C135.486 26.7627 134.892 26.9417 134.412 27.2998C133.932 27.6579 133.692 28.0911 133.692 28.5996H131.694C131.694 28.0195 131.898 27.4609 132.307 26.9238C132.722 26.3796 133.281 25.9499 133.982 25.6348C134.691 25.3197 135.468 25.1621 136.313 25.1621C137.653 25.1621 138.702 25.4987 139.461 26.1719C140.22 26.8379 140.614 27.7581 140.643 28.9326V34.2822C140.643 35.3493 140.779 36.1979 141.051 36.8281V37H138.967ZM135.669 35.4854C136.292 35.4854 136.883 35.3242 137.441 35.002C138 34.6797 138.405 34.2607 138.655 33.7451V31.3604H137.098C134.663 31.3604 133.445 32.0729 133.445 33.498C133.445 34.1211 133.653 34.6081 134.068 34.959C134.484 35.3099 135.017 35.4854 135.669 35.4854Z" fill="black"/>
</svg>
