<svg width="474" height="60" viewBox="0 0 474 60" fill="none" xmlns="http://www.w3.org/2000/svg">
<rect width="474" height="60" fill="#FAFAFA"/>
<path d="M38.1699 29.9185H34.2915V34H33.0728V24.7578H38.7983V25.7607H34.2915V28.9219H38.1699V29.9185ZM39.6235 30.5024C39.6235 29.8296 39.7547 29.2244 40.0171 28.687C40.2837 28.1496 40.6519 27.7349 41.1216 27.4429C41.5955 27.1509 42.1351 27.0049 42.7402 27.0049C43.6755 27.0049 44.4308 27.3286 45.0063 27.9761C45.5861 28.6235 45.876 29.4847 45.876 30.5596V30.6421C45.876 31.3107 45.7469 31.9116 45.4888 32.4448C45.2349 32.9738 44.8688 33.3864 44.3906 33.6826C43.9167 33.9788 43.3708 34.127 42.7529 34.127C41.8219 34.127 41.0666 33.8032 40.4868 33.1558C39.9113 32.5083 39.6235 31.6514 39.6235 30.585V30.5024ZM40.8042 30.6421C40.8042 31.4038 40.9798 32.0153 41.3311 32.4766C41.6865 32.9378 42.1605 33.1685 42.7529 33.1685C43.3496 33.1685 43.8236 32.9357 44.1748 32.4702C44.526 32.0005 44.7017 31.3446 44.7017 30.5024C44.7017 29.7492 44.5218 29.1398 44.1621 28.6743C43.8066 28.2046 43.3327 27.9697 42.7402 27.9697C42.1605 27.9697 41.6929 28.2004 41.3374 28.6616C40.9819 29.1229 40.8042 29.783 40.8042 30.6421ZM48.6245 34H47.4502V24.25H48.6245V34ZM51.7856 34H50.6113V24.25H51.7856V34ZM53.3599 30.5024C53.3599 29.8296 53.491 29.2244 53.7534 28.687C54.02 28.1496 54.3882 27.7349 54.8579 27.4429C55.3319 27.1509 55.8714 27.0049 56.4766 27.0049C57.4118 27.0049 58.1672 27.3286 58.7427 27.9761C59.3224 28.6235 59.6123 29.4847 59.6123 30.5596V30.6421C59.6123 31.3107 59.4832 31.9116 59.2251 32.4448C58.9712 32.9738 58.6051 33.3864 58.127 33.6826C57.653 33.9788 57.1071 34.127 56.4893 34.127C55.5583 34.127 54.8029 33.8032 54.2231 33.1558C53.6476 32.5083 53.3599 31.6514 53.3599 30.585V30.5024ZM54.5405 30.6421C54.5405 31.4038 54.7161 32.0153 55.0674 32.4766C55.4229 32.9378 55.8968 33.1685 56.4893 33.1685C57.0859 33.1685 57.5599 32.9357 57.9111 32.4702C58.2624 32.0005 58.438 31.3446 58.438 30.5024C58.438 29.7492 58.2581 29.1398 57.8984 28.6743C57.543 28.2046 57.069 27.9697 56.4766 27.9697C55.8968 27.9697 55.4292 28.2004 55.0737 28.6616C54.7183 29.1229 54.5405 29.783 54.5405 30.6421ZM67.166 32.3813L68.4863 27.1318H69.6606L67.6611 34H66.709L65.0396 28.7949L63.4146 34H62.4624L60.4692 27.1318H61.6372L62.9893 32.2734L64.5889 27.1318H65.5347L67.166 32.3813ZM78.3252 33.3208C77.8682 33.8582 77.1974 34.127 76.313 34.127C75.5809 34.127 75.0223 33.9154 74.6372 33.4922C74.2563 33.0648 74.0638 32.4342 74.0596 31.6006V27.1318H75.2339V31.5688C75.2339 32.6099 75.6571 33.1304 76.5034 33.1304C77.4006 33.1304 77.9972 32.7961 78.2935 32.1274V27.1318H79.4678V34H78.3506L78.3252 33.3208ZM85.2568 32.1782C85.2568 31.8608 85.1362 31.6154 84.895 31.4419C84.658 31.2642 84.2412 31.1118 83.6445 30.9849C83.0521 30.8579 82.5802 30.7056 82.229 30.5278C81.882 30.3501 81.6239 30.1385 81.4546 29.8931C81.2896 29.6476 81.207 29.3556 81.207 29.0171C81.207 28.4543 81.444 27.9782 81.918 27.5889C82.3962 27.1995 83.0055 27.0049 83.7461 27.0049C84.5247 27.0049 85.1553 27.2059 85.6377 27.6079C86.1243 28.0099 86.3677 28.5241 86.3677 29.1504H85.187C85.187 28.8288 85.0495 28.5516 84.7744 28.3188C84.5036 28.0861 84.1608 27.9697 83.7461 27.9697C83.3187 27.9697 82.9844 28.0628 82.7432 28.249C82.502 28.4352 82.3813 28.6785 82.3813 28.979C82.3813 29.2625 82.4935 29.4762 82.7178 29.6201C82.9421 29.764 83.3462 29.9015 83.9302 30.0327C84.5184 30.1639 84.9945 30.3205 85.3584 30.5024C85.7223 30.6844 85.991 30.9045 86.1646 31.1626C86.3423 31.4165 86.4312 31.7275 86.4312 32.0957C86.4312 32.7093 86.1857 33.2023 85.6948 33.5747C85.2039 33.9429 84.5671 34.127 83.7842 34.127C83.234 34.127 82.7474 34.0296 82.3242 33.835C81.901 33.6403 81.5688 33.3695 81.3276 33.0225C81.0907 32.6712 80.9722 32.2925 80.9722 31.8862H82.1465C82.1676 32.2798 82.3242 32.5929 82.6162 32.8257C82.9124 33.0542 83.3018 33.1685 83.7842 33.1685C84.2285 33.1685 84.584 33.0796 84.8506 32.9019C85.1214 32.7199 85.2568 32.4787 85.2568 32.1782ZM90.8745 30.5024C90.8745 29.8296 91.0057 29.2244 91.2681 28.687C91.5347 28.1496 91.9028 27.7349 92.3726 27.4429C92.8465 27.1509 93.3861 27.0049 93.9912 27.0049C94.9264 27.0049 95.6818 27.3286 96.2573 27.9761C96.8371 28.6235 97.127 29.4847 97.127 30.5596V30.6421C97.127 31.3107 96.9979 31.9116 96.7397 32.4448C96.4858 32.9738 96.1198 33.3864 95.6416 33.6826C95.1676 33.9788 94.6217 34.127 94.0039 34.127C93.0729 34.127 92.3175 33.8032 91.7378 33.1558C91.1623 32.5083 90.8745 31.6514 90.8745 30.585V30.5024ZM92.0552 30.6421C92.0552 31.4038 92.2308 32.0153 92.582 32.4766C92.9375 32.9378 93.4115 33.1685 94.0039 33.1685C94.6006 33.1685 95.0745 32.9357 95.4258 32.4702C95.777 32.0005 95.9526 31.3446 95.9526 30.5024C95.9526 29.7492 95.7728 29.1398 95.4131 28.6743C95.0576 28.2046 94.5837 27.9697 93.9912 27.9697C93.4115 27.9697 92.9438 28.2004 92.5884 28.6616C92.2329 29.1229 92.0552 29.783 92.0552 30.6421ZM99.7104 27.1318L99.7485 27.9951C100.273 27.335 100.959 27.0049 101.805 27.0049C103.257 27.0049 103.989 27.8237 104.001 29.4614V34H102.827V29.4551C102.823 28.96 102.709 28.5939 102.484 28.3569C102.264 28.12 101.919 28.0015 101.45 28.0015C101.069 28.0015 100.735 28.103 100.447 28.3062C100.159 28.5093 99.9347 28.7759 99.7739 29.106V34H98.5996V27.1318H99.7104ZM112.996 32.1782C112.996 31.8608 112.875 31.6154 112.634 31.4419C112.397 31.2642 111.98 31.1118 111.384 30.9849C110.791 30.8579 110.319 30.7056 109.968 30.5278C109.621 30.3501 109.363 30.1385 109.194 29.8931C109.029 29.6476 108.946 29.3556 108.946 29.0171C108.946 28.4543 109.183 27.9782 109.657 27.5889C110.135 27.1995 110.745 27.0049 111.485 27.0049C112.264 27.0049 112.895 27.2059 113.377 27.6079C113.864 28.0099 114.107 28.5241 114.107 29.1504H112.926C112.926 28.8288 112.789 28.5516 112.514 28.3188C112.243 28.0861 111.9 27.9697 111.485 27.9697C111.058 27.9697 110.724 28.0628 110.482 28.249C110.241 28.4352 110.121 28.6785 110.121 28.979C110.121 29.2625 110.233 29.4762 110.457 29.6201C110.681 29.764 111.085 29.9015 111.669 30.0327C112.258 30.1639 112.734 30.3205 113.098 30.5024C113.462 30.6844 113.73 30.9045 113.904 31.1626C114.082 31.4165 114.17 31.7275 114.17 32.0957C114.17 32.7093 113.925 33.2023 113.434 33.5747C112.943 33.9429 112.306 34.127 111.523 34.127C110.973 34.127 110.487 34.0296 110.063 33.835C109.64 33.6403 109.308 33.3695 109.067 33.0225C108.83 32.6712 108.711 32.2925 108.711 31.8862H109.886C109.907 32.2798 110.063 32.5929 110.355 32.8257C110.652 33.0542 111.041 33.1685 111.523 33.1685C111.968 33.1685 112.323 33.0796 112.59 32.9019C112.861 32.7199 112.996 32.4787 112.996 32.1782ZM115.389 30.5024C115.389 29.8296 115.52 29.2244 115.783 28.687C116.049 28.1496 116.417 27.7349 116.887 27.4429C117.361 27.1509 117.901 27.0049 118.506 27.0049C119.441 27.0049 120.196 27.3286 120.772 27.9761C121.352 28.6235 121.642 29.4847 121.642 30.5596V30.6421C121.642 31.3107 121.513 31.9116 121.254 32.4448C121 32.9738 120.634 33.3864 120.156 33.6826C119.682 33.9788 119.136 34.127 118.519 34.127C117.588 34.127 116.832 33.8032 116.252 33.1558C115.677 32.5083 115.389 31.6514 115.389 30.585V30.5024ZM116.57 30.6421C116.57 31.4038 116.745 32.0153 117.097 32.4766C117.452 32.9378 117.926 33.1685 118.519 33.1685C119.115 33.1685 119.589 32.9357 119.94 32.4702C120.292 32.0005 120.467 31.3446 120.467 30.5024C120.467 29.7492 120.287 29.1398 119.928 28.6743C119.572 28.2046 119.098 27.9697 118.506 27.9697C117.926 27.9697 117.458 28.2004 117.103 28.6616C116.748 29.1229 116.57 29.783 116.57 30.6421ZM125.869 33.1685C126.288 33.1685 126.654 33.0415 126.967 32.7876C127.28 32.5337 127.454 32.2163 127.488 31.8354H128.599C128.577 32.229 128.442 32.6035 128.192 32.959C127.943 33.3145 127.608 33.598 127.189 33.8096C126.775 34.0212 126.335 34.127 125.869 34.127C124.934 34.127 124.189 33.8159 123.635 33.1938C123.085 32.5675 122.81 31.7127 122.81 30.6294V30.4326C122.81 29.764 122.932 29.1694 123.178 28.6489C123.423 28.1284 123.774 27.7243 124.231 27.4365C124.693 27.1488 125.236 27.0049 125.863 27.0049C126.633 27.0049 127.272 27.2355 127.78 27.6968C128.292 28.158 128.565 28.7568 128.599 29.4932H127.488C127.454 29.0488 127.285 28.6849 126.98 28.4014C126.68 28.1136 126.307 27.9697 125.863 27.9697C125.266 27.9697 124.803 28.1855 124.473 28.6172C124.147 29.0446 123.984 29.6646 123.984 30.4771V30.6992C123.984 31.4906 124.147 32.0999 124.473 32.5273C124.799 32.9548 125.264 33.1685 125.869 33.1685ZM131.195 34H130.021V27.1318H131.195V34ZM129.925 25.3101C129.925 25.1196 129.982 24.9588 130.097 24.8276C130.215 24.6965 130.389 24.6309 130.617 24.6309C130.846 24.6309 131.019 24.6965 131.138 24.8276C131.256 24.9588 131.315 25.1196 131.315 25.3101C131.315 25.5005 131.256 25.6592 131.138 25.7861C131.019 25.9131 130.846 25.9766 130.617 25.9766C130.389 25.9766 130.215 25.9131 130.097 25.7861C129.982 25.6592 129.925 25.5005 129.925 25.3101ZM137.32 34C137.253 33.8646 137.198 33.6234 137.155 33.2764C136.609 33.8434 135.958 34.127 135.2 34.127C134.523 34.127 133.967 33.9365 133.531 33.5557C133.099 33.1706 132.883 32.6839 132.883 32.0957C132.883 31.3805 133.154 30.8262 133.696 30.4326C134.242 30.0348 135.008 29.8359 135.994 29.8359H137.136V29.2964C137.136 28.8859 137.014 28.5601 136.768 28.3188C136.523 28.0734 136.161 27.9507 135.683 27.9507C135.264 27.9507 134.912 28.0565 134.629 28.2681C134.345 28.4797 134.204 28.7357 134.204 29.0361H133.023C133.023 28.6934 133.144 28.3633 133.385 28.0459C133.63 27.7243 133.96 27.4704 134.375 27.2842C134.794 27.098 135.253 27.0049 135.752 27.0049C136.544 27.0049 137.164 27.2038 137.612 27.6016C138.061 27.9951 138.294 28.5389 138.311 29.2329V32.394C138.311 33.0246 138.391 33.526 138.552 33.8984V34H137.32ZM135.372 33.105C135.74 33.105 136.089 33.0098 136.419 32.8193C136.749 32.6289 136.988 32.3813 137.136 32.0767V30.6675H136.216C134.777 30.6675 134.058 31.0885 134.058 31.9307C134.058 32.2988 134.18 32.5866 134.426 32.7939C134.671 33.0013 134.986 33.105 135.372 33.105ZM141.427 34H140.253V24.25H141.427V34Z" fill="black"/>
</svg>
